<?xml version="1.0" encoding="utf-8"?>
<!-- Generator: Adobe Illustrator 16.0.0, SVG Export Plug-In . SVG Version: 6.00 Build 0)  -->
<!DOCTYPE svg PUBLIC "-//W3C//DTD SVG 1.1//EN" "http://www.w3.org/Graphics/SVG/1.1/DTD/svg11.dtd">
<svg version="1.1" id="Layer_1" xmlns="http://www.w3.org/2000/svg" xmlns:xlink="http://www.w3.org/1999/xlink" x="0px" y="0px"
	 width="1190.55px" height="841.89px" viewBox="0 0 1190.55 841.89" enable-background="new 0 0 1190.55 841.89"
	 xml:space="preserve">
<text transform="matrix(1 0 0 1 944.6689 310.4414)" font-family="'CaviarDreams'" font-size="103.2779">brise</text>
<g>
	<g lc:is_locked="false" lc:layername="0" lc:is_construction="false">
		<line fill="none" stroke="#010101" x1="906.291" y1="306.608" x2="906.291" y2="274.891"/>
		<line fill="none" stroke="#010101" x1="878.823" y1="290.75" x2="906.291" y2="306.608"/>
		<line fill="none" stroke="#010101" x1="906.291" y1="274.891" x2="878.823" y2="290.75"/>
	</g>
</g>
<g>
	<g lc:is_locked="false" lc:layername="0" lc:is_construction="false">
		<line fill="none" stroke="#010101" x1="906.291" y1="274.891" x2="906.291" y2="243.173"/>
		<line fill="none" stroke="#010101" x1="878.823" y1="259.032" x2="906.291" y2="274.891"/>
		<line fill="none" stroke="#010101" x1="906.291" y1="243.173" x2="878.823" y2="259.032"/>
	</g>
</g>
<polyline points="933.471,290.75 906.291,275.058 906.291,306.442 933.471,290.75 "/>
<polyline stroke="#000000" points="906.146,243.174 878.968,227.481 878.968,258.865 906.146,243.174 "/>
<polyline points="906.146,275.058 878.968,259.366 878.968,290.75 906.146,275.058 "/>
<polyline stroke="#000000" points="906.291,306.442 879.111,290.75 879.111,322.134 906.291,306.442 "/>
<polyline stroke="#000000" points="933.471,259.032 906.291,243.34 906.291,274.724 933.471,259.032 "/>
<polyline fill="none" stroke="#000000" points="878.968,227.481 933.471,259.032 906.291,275.058 933.471,290.75 879.111,322.134 
	878.968,227.481 "/>
<g>
	<g lc:is_locked="false" lc:layername="0" lc:is_construction="false">
		<line fill="none" stroke="#000000" x1="691.613" y1="650.183" x2="691.613" y2="612.52"/>
		<line fill="none" stroke="#000000" x1="658.997" y1="631.353" x2="691.613" y2="650.183"/>
		<line fill="none" stroke="#000000" x1="691.613" y1="612.52" x2="658.997" y2="631.353"/>
	</g>
</g>
<g>
	<g lc:is_locked="false" lc:layername="0" lc:is_construction="false">
		<line fill="none" stroke="#000000" x1="691.613" y1="612.52" x2="691.613" y2="574.856"/>
		<line fill="none" stroke="#000000" x1="658.997" y1="593.688" x2="691.613" y2="612.52"/>
		<line fill="none" stroke="#000000" x1="691.613" y1="574.856" x2="658.997" y2="593.688"/>
	</g>
</g>
<polyline fill="none" stroke="#000000" stroke-miterlimit="10" points="723.887,631.353 691.613,612.718 691.613,649.986 
	723.887,631.353 "/>
<polyline fill="none" stroke="#000000" points="691.441,574.857 659.168,556.224 659.168,593.492 691.441,574.857 "/>
<polyline fill="none" stroke="#000000" stroke-miterlimit="10" points="691.441,612.719 659.168,594.085 659.168,631.351 
	691.441,612.719 "/>
<polyline fill="none" stroke="#000000" points="691.613,649.986 659.338,631.353 659.338,668.618 691.613,649.986 "/>
<polyline fill="none" stroke="#000000" points="723.887,593.688 691.613,575.056 691.613,612.321 723.887,593.688 "/>
<polyline fill="none" stroke="#000000" points="659.168,556.224 723.887,593.688 691.613,612.718 723.887,631.353 659.338,668.618 
	659.168,556.224 "/>
<text transform="matrix(1 0 0 1 878.8232 344.8149)" font-family="'CaviarDreams'" font-size="18">architect | urban planner | designer</text>
<text transform="matrix(1 0 0 1 213.1748 640.6533)" font-family="'CaviarDreams'" font-size="105.5166">brise</text>
<text transform="matrix(1 0 0 1 216.3994 659.751)" font-family="'CaviarDreams'" font-size="13.5218">architect | urban planner | designer</text>
<text transform="matrix(1 0 0 1 742.1875 650.2021)" font-family="'CaviarDreams'" font-size="119.0548">brise</text>
<text transform="matrix(1 0 0 1 745.8271 671.75)" font-family="'CaviarDreams'" font-size="15.2567">architect | urban planner | designer</text>
<g>
	<g lc:is_locked="false" lc:layername="0" lc:is_construction="false">
		<line fill="none" stroke="#000000" x1="462.613" y1="139.183" x2="462.613" y2="101.52"/>
		<line fill="none" stroke="#000000" x1="429.997" y1="120.353" x2="462.613" y2="139.183"/>
		<line fill="none" stroke="#000000" x1="462.613" y1="101.52" x2="429.997" y2="120.353"/>
	</g>
</g>
<g>
	<g lc:is_locked="false" lc:layername="0" lc:is_construction="false">
		<line fill="none" stroke="#000000" x1="462.613" y1="101.52" x2="462.613" y2="63.856"/>
		<line fill="none" stroke="#000000" x1="429.997" y1="82.688" x2="462.613" y2="101.52"/>
		<line fill="none" stroke="#000000" x1="462.613" y1="63.856" x2="429.997" y2="82.688"/>
	</g>
</g>
<polyline fill="none" stroke="#000000" stroke-miterlimit="10" points="494.887,120.353 462.613,101.718 462.613,138.986 
	494.887,120.353 "/>
<polyline fill="none" stroke="#000000" points="462.441,63.857 430.168,45.224 430.168,82.492 462.441,63.857 "/>
<polyline fill="none" stroke="#000000" stroke-miterlimit="10" points="462.441,101.719 430.168,83.085 430.168,120.351 
	462.441,101.719 "/>
<polyline fill="none" stroke="#000000" points="462.613,138.986 430.338,120.353 430.338,157.618 462.613,138.986 "/>
<polyline fill="none" stroke="#000000" points="494.887,82.688 462.613,64.056 462.613,101.321 494.887,82.688 "/>
<polyline fill="none" stroke="#000000" points="430.168,45.224 494.887,82.688 462.613,101.718 494.887,120.353 430.338,157.618 
	430.168,45.224 "/>
<g>
	<g lc:is_locked="false" lc:layername="0" lc:is_construction="false">
		<line fill="none" stroke="#000000" x1="224.055" y1="253.59" x2="224.055" y2="170.067"/>
		<line fill="none" stroke="#000000" x1="151.724" y1="211.833" x2="224.055" y2="253.59"/>
		<line fill="none" stroke="#000000" x1="224.055" y1="170.067" x2="151.724" y2="211.833"/>
	</g>
</g>
<g>
	<g lc:is_locked="false" lc:layername="0" lc:is_construction="false">
		<line fill="none" stroke="#000000" x1="224.055" y1="170.067" x2="224.055" y2="86.544"/>
		<line fill="none" stroke="#000000" x1="151.724" y1="128.307" x2="224.055" y2="170.067"/>
		<line fill="none" stroke="#000000" x1="224.055" y1="86.544" x2="151.724" y2="128.307"/>
	</g>
</g>
<polyline fill="none" stroke="#000000" stroke-miterlimit="10" points="295.625,211.833 224.055,170.508 224.055,253.157 
	295.625,211.833 "/>
<polyline fill="none" stroke="#000000" points="223.673,86.547 152.103,45.224 152.103,127.872 223.673,86.547 "/>
<polyline fill="none" stroke="#000000" stroke-miterlimit="10" points="223.673,170.51 152.103,129.187 152.103,211.829 
	223.673,170.51 "/>
<polyline fill="none" stroke="#000000" points="224.055,253.157 152.479,211.833 152.479,294.475 224.055,253.157 "/>
<polyline fill="none" stroke="#000000" points="295.625,128.307 224.055,86.986 224.055,169.628 295.625,128.307 "/>
<polyline fill="none" stroke="#000000" points="152.103,45.224 295.625,128.307 224.055,170.508 295.625,211.833 152.479,294.475 
	152.103,45.224 "/>
<text transform="matrix(1 0 0 1 199 196.2627)" font-family="'CaviarDreams'" font-size="233.882">brise</text>
<text transform="matrix(1 0 0 1 478.7505 594.8203)" font-family="'CaviarDreams'" font-size="82.9677">brise</text>
<text transform="matrix(1 0 0 1 53.4912 432.9453)" font-family="'CaviarDreams'" font-size="21.0313">architect | urban planner | designer</text>
<text transform="matrix(1 0 0 1 850 191)" font-family="'CaviarDreams'" font-size="60">2</text>
<text transform="matrix(1 0 0 1 316 508)" font-family="'CaviarDreams'" font-size="60">3</text>
<text transform="matrix(1 0 0 1 834 499)" font-family="'CaviarDreams'" font-size="60">4</text>
</svg>
